# xmcd
#
# Track frame offsets:
#	150
#	13275
#	29401
#	42377
#	59178
#	70239
#	88465
#	100690
#	117566
#	134929
#	150507
#	164795
#	179330
#	193512
#	207425
#	225306
#	239782
#
# Disc length: 3429 seconds
#
# Revision: 5
# Processed by: cddbd v1.5.2PL0 Copyright (c) Steve Scherf et al.
# Submitted via: audiograbber 1.83.01
#
DISCID=0b0d6311
DTITLE=Clint Black - BS7117
DYEAR=1900
DGENRE=Karaoke
TTITLE0=Clint Black - Walkin' Away
TTITLE1=Clint Black - Nobody's Home
TTITLE2=Clint Black - Killin' Time
TTITLE3=Clint Black - No Time To Kill
TTITLE4=Clint Black - One More Payment
TTITLE5=Clint Black - A Bad Goodbye
TTITLE6=Clint Black - Till Santa's Gone
TTITLE7=Clint Black - Loving Blind
TTITLE8=Clint Black - Desperado
TTITLE9=Clint Black - State Of Mind
TTITLE10=Clint Black - This Nightlife
TTITLE11=Clint Black - Put Yourself In My Shoes
TTITLE12=Clint Black - A Better Man
TTITLE13=Clint Black - Nothing News
TTITLE14=Clint Black - We Tell Ourselves
TTITLE15=Clint Black - Where Are You Now
TTITLE16=Clint Black - Burn One Down
EXTD=MediaType: Karaoke CD+G Producer: Backstage
EXTT0=
EXTT1=
EXTT2=
EXTT3=
EXTT4=
EXTT5=
EXTT6=
EXTT7=
EXTT8=
EXTT9=
EXTT10=
EXTT11=
EXTT12=
EXTT13=
EXTT14=
EXTT15=
EXTT16=
PLAYORDER=
